<svg xmlns="http://www.w3.org/2000/svg" xmlns:xlink="http://www.w3.org/1999/xlink" version="1.1" id="Layer_1" x="0px" y="0px" width="878.74" height="1303.939" viewBox="0 0 878.74 1303.939" enable-background="new 0 0 878.74 1303.939" xml:space="preserve">
<path fill="#4DBAF6" d="M526.81,845.064h311.495c41.511,0,75.162-33.651,75.162-75.162v-32.763l0,0H526.78H156.09H-34.725v32.763  c0,41.511,33.651,75.162,75.162,75.162h50.432H526.81z"/>
<path fill="#C9F3FF" d="M878.777,737.139V255.364c0-42.575-34.515-77.089-77.09-77.089H77.054  c-42.575,0-77.089,34.514-77.089,77.089v481.777h878.812V737.139z"/>
<path fill="#FF5D5D" d="M250.987,602.263h79.773c29.803,0,53.963-24.16,53.963-53.963l0,0c0-29.803-24.16-53.961-53.963-53.961  H123.302c-29.802,0-53.962,24.159-53.962,53.961l0,0c0,29.803,24.16,53.963,53.962,53.963h16.389H250.987z"/>
<path fill="#FFCDAC" d="M458.644,1126.464l32.539-76.357c23.509-55.167,35.627-114.513,35.627-174.479V703.528  c0-25.593-20.747-46.339-46.341-46.339l0,0c-25.593,0-46.34,20.746-46.34,46.339v90.985v-68.754v-21.955  c0-25.594-20.746-46.34-46.339-46.34l0,0c-25.594,0-46.341,20.746-46.341,46.34v16.564v74.145v-90.709  c0-25.594-20.746-46.34-46.339-46.34l0,0c-25.594,0-46.341,20.746-46.341,46.34v90.709V540.677c0-25.593-20.747-46.339-46.34-46.339  l0,0c-25.594,0-46.34,20.746-46.34,46.339v317.781l-0.069-99.71L89.13,856.801c-21.072,30.891-25.565,70.184-12.009,105.033  l64.046,164.632h317.476V1126.464z"/>
<path d="M913.467,717.866h-15.418V255.364c0-53.134-43.228-96.361-96.361-96.361H77.054c-53.133,0-96.361,43.228-96.361,96.361  v462.506h-15.417c-10.644,0-19.272,8.628-19.272,19.271v32.764c0,52.071,42.362,94.434,94.434,94.434h22.279  c-15.312,32.599-16.836,70.346-3.554,104.486l64.044,164.63c2.966,7.624,10.249,12.289,17.966,12.289  c2.324,0,4.687-0.423,6.982-1.315c9.92-3.858,14.832-15.029,10.974-24.949L95.083,954.848c-11.259-28.941-7.534-61.534,9.967-87.188  l31.763-46.563v37.36c0,10.645,8.628,19.272,19.272,19.272s19.272-8.628,19.272-19.272V540.677  c0-14.927,12.143-27.068,27.068-27.068c14.924,0,27.068,12.142,27.068,27.068v253.833c0,10.645,8.628,19.272,19.272,19.272  s19.272-8.628,19.272-19.272v-90.709c0-14.927,12.142-27.068,27.068-27.068c14.926,0,27.068,12.142,27.068,27.068v90.709  c0,10.645,8.628,19.272,19.271,19.272c10.645,0,19.272-8.628,19.272-19.272v-90.709c0-14.927,12.144-27.068,27.068-27.068  c14.925,0,27.068,12.142,27.068,27.068v90.709c0,10.645,8.628,19.272,19.272,19.272c10.643,0,19.271-8.628,19.271-19.272v-90.709  v-0.276c0-14.926,12.143-27.067,27.068-27.067c14.927,0,27.068,12.142,27.068,27.067v172.101  c0,57.691-11.467,113.853-34.085,166.922l-32.539,76.357c-4.173,9.793,0.384,21.112,10.174,25.285  c2.464,1.051,5.025,1.547,7.547,1.547c7.49,0,14.616-4.396,17.738-11.721l32.539-76.356  c24.663-57.879,37.171-119.124,37.171-182.034v-11.292h292.224c52.071,0,94.434-42.362,94.434-94.435v-32.763  C932.737,726.494,924.111,717.866,913.467,717.866z M-15.453,769.902v-13.49h149.738l-47.329,69.38H40.437  C9.621,825.791-15.453,800.72-15.453,769.902z M136.817,540.677v42.313h-13.516c-19.127,0-34.69-15.563-34.69-34.691  c0-19.127,15.563-34.69,34.69-34.69h19.384C138.928,521.867,136.817,531.029,136.817,540.677z M262.174,513.609h68.586  c19.128,0,34.69,15.563,34.69,34.69c0,19.128-15.563,34.691-34.69,34.691h-62.717v-42.313  C268.042,531.029,265.932,521.867,262.174,513.609z M480.469,637.916c-18.145,0-34.589,7.407-46.479,19.349  c-11.868-11.782-28.198-19.076-46.201-19.076c-18.074,0-34.463,7.347-46.341,19.208c-11.877-11.863-28.267-19.208-46.339-19.208  c-9.65,0-18.81,2.111-27.068,5.867v-22.522h62.717c40.382,0,73.235-32.853,73.235-73.234c0-40.38-32.854-73.234-73.235-73.234  H123.302c-40.381,0-73.235,32.854-73.235,73.234c0,40.382,32.854,73.234,73.235,73.234h13.516v96.335H19.238V255.364  c0-31.88,25.937-57.816,57.816-57.816h724.633c31.881,0,57.817,25.937,57.817,57.816v377.762H693.741  c-10.645,0-19.272,8.628-19.272,19.272c0,10.644,8.628,19.271,19.272,19.271h165.764v46.2H546.081v-14.342  C546.083,667.346,516.648,637.916,480.469,637.916z M894.194,769.902c0,30.818-25.071,55.89-55.89,55.89H546.081v-69.38h348.113  V769.902z"/>
<path d="M616.963,633.117c-5.088,0-10.041,2.062-13.626,5.646c-3.604,3.585-5.646,8.557-5.646,13.626  c0,5.087,2.043,10.04,5.646,13.625c3.585,3.604,8.538,5.646,13.626,5.646c5.068,0,10.041-2.043,13.625-5.646  c3.585-3.585,5.647-8.538,5.647-13.625c0-5.07-2.063-10.042-5.647-13.626C626.987,635.179,622.031,633.117,616.963,633.117z"/>
<path d="M277.792,370.995c-5.087,0-10.041,2.063-13.625,5.646c-3.604,3.585-5.646,8.558-5.646,13.626  c0,5.068,2.042,10.04,5.646,13.625c3.585,3.584,8.557,5.646,13.625,5.646c5.069,0,10.021-2.062,13.626-5.646  c3.584-3.585,5.646-8.557,5.646-13.625c0-5.069-2.062-10.042-5.646-13.626C287.833,373.058,282.863,370.995,277.792,370.995z"/>
<path d="M208.021,370.995H69.339c-10.644,0-19.272,8.628-19.272,19.272c0,10.643,8.629,19.271,19.272,19.271h138.682  c10.644,0,19.272-8.628,19.272-19.271C227.293,379.623,218.665,370.995,208.021,370.995z"/>
<path d="M384.721,263.073H69.441c-10.644,0-19.272,8.628-19.272,19.272c0,10.644,8.628,19.272,19.272,19.272h315.279  c10.644,0,19.272-8.629,19.272-19.272C403.993,271.7,395.364,263.073,384.721,263.073z"/>
<g>
	<g id="group-4svg">
		<path id="path-1_24_" fill="#53ECF4" d="M720.133,307.918c-41.283-71.679-138.633-90.122-202.794-26.956    c-41.498,40.848-48.585,104.553-19.523,154.997c29.175,50.656,79.777,78.472,141.361,61.387l50.031,86.869    c3.412,5.924,12.255,7.291,18.186,3.875l37.543-21.623c5.923-3.411,6.678-10.304,3.266-16.229l-49.973-86.768    C733.256,425.078,749.385,358.708,720.133,307.918z"/>
		<path id="path-2_24_" fill="#EDC951" d="M658.346,530.631l30.862,53.584c3.412,5.924,12.255,7.291,18.186,3.875l37.543-21.623    c5.923-3.411,6.678-10.304,3.266-16.229l-30.862-53.584L658.346,530.631z"/>
		<path id="path-3_23_" fill="#E56A77" d="M809.297,454.485c-4.394,16.308-21.165,25.967-37.469,21.579    c-16.3-4.389-25.958-21.161-21.576-37.461c4.388-16.304,21.157-25.962,37.47-21.579    C804.019,421.412,813.678,438.184,809.297,454.485z"/>
		<path id="path-4_23_" d="M766.663,485.802c-9.217,5.309-19.959,6.71-30.241,3.938c-21.219-5.704-33.839-27.614-28.126-48.837    c2.764-10.278,9.372-18.861,18.59-24.169c9.225-5.313,19.965-6.72,30.247-3.958c21.223,5.71,33.842,27.62,28.127,48.837    C782.493,471.9,775.89,480.489,766.663,485.802z M736.153,432.823c-4.923,2.836-8.454,7.42-9.932,12.906    c-3.049,11.333,3.692,23.035,15.026,26.092c10.982,2.954,23.119-4.044,26.085-15.032c3.051-11.334-3.689-23.037-15.022-26.086    C746.824,429.228,741.081,429.984,736.153,432.823z"/>
		<path id="path-5_20_" d="M715.032,576.549l-37.543,21.621c-10.86,6.255-20.821,3.956-26.641-6.148l-46.522-80.776    c-59.548,13.619-113.69-11.028-145.87-66.903c-31.582-54.835-23.339-122.954,20.048-165.664    c9.183-9.044,19.292-16.767,30.052-22.963c65.542-37.749,149.867-14.642,187.969,51.514    c31.469,54.641,15.466,120.64-17.269,160.498l46.677,81.049C731.494,558.432,727.116,569.59,715.032,576.549z M666.932,582.745    c0.339-0.145,0.759-0.358,1.29-0.664l37.544-21.623c2.016-1.162,3.2-2.329,3.72-3.036l-49.613-86.144    c-2.014-3.498-1.536-7.903,1.188-10.891c30.384-33.305,47.501-95.058,19.377-143.891c-32.989-57.28-105.943-77.331-162.615-44.691    c-9.387,5.406-18.237,12.175-26.298,20.103c-37.358,36.786-44.343,95.655-16.979,143.168c28.94,50.248,78.226,71.374,131.837,56.5    c4.083-1.135,8.413,0.642,10.525,4.311L666.932,582.745z"/>
		<path id="path-6_19_" d="M668.904,474.554l-58.996,33.978c-4.441,2.558-10.118,1.034-12.677-3.412    c-2.56-4.441-1.032-10.12,3.409-12.677l58.996-33.979c4.44-2.557,10.119-1.029,12.677,3.413    C674.875,466.323,673.344,471.997,668.904,474.554z"/>
		<path id="path-7_13_" d="M684.348,501.37l-53.635,30.89c-4.439,2.557-10.115,1.034-12.676-3.412    c-2.558-4.44-1.03-10.12,3.411-12.677l53.634-30.89c4.438-2.558,10.119-1.029,12.677,3.412    C690.318,493.14,688.787,498.813,684.348,501.37z"/>
	</g>
</g>
</svg>