<svg xmlns="http://www.w3.org/2000/svg" xmlns:xlink="http://www.w3.org/1999/xlink" version="1.1" id="Capa_1" x="0px" y="0px" width="878.74" height="1303.939" viewBox="0 0 878.74 1303.939" enable-background="new 0 0 878.74 1303.939" xml:space="preserve">
<path fill="#388E3C" d="M80.6,244.857h844.167c11.655,0,21.104,9.45,21.104,21.105v590.917c0,11.655-9.449,21.104-21.104,21.104  H80.6c-11.656-0.002-21.104-9.451-21.104-21.106V265.962C59.496,254.306,68.944,244.857,80.6,244.857z"/>
<path fill="#4CAF50" d="M-46.025,118.233h844.167c11.654,0,21.103,9.449,21.103,21.104v590.917c0,11.655-9.448,21.104-21.104,21.104  H-46.025c-11.656-0.002-21.105-9.45-21.105-21.106V139.337C-67.13,127.681-57.681,118.233-46.025,118.233z"/>
<g>
	<path fill="#ECEFF1" d="M376.058,582.524c-50.186,4.957-95.897-29.09-105.521-78.592c-0.974-11.608,7.641-21.81,19.247-22.792   c11.532-0.742,21.593,7.753,22.792,19.246c1.857,21.992,30.263,39.929,63.312,39.929c34.357,0,63.313-19.332,63.313-42.208   c0-20.598-20.007-33.767-62.891-41.745l-4.474-0.887c-68.462-12.621-101.3-40.646-101.3-83.993   c6.603-52.02,53.321-89.394,105.521-84.417c50.171-4.96,95.878,29.064,105.519,78.548c0.997,11.612-7.606,21.835-19.222,22.833   c-0.008,0-0.017,0.001-0.024,0.001c-11.575,0.77-21.699-7.716-22.961-19.246c-1.773-22.034-30.179-39.929-63.312-39.929   c-34.316,0-63.313,19.332-63.313,42.207c0,20.598,20.049,33.768,63.06,41.786l4.6,0.887c68.377,12.662,101.3,40.646,101.3,83.994   C475.08,550.205,428.29,587.575,376.058,582.524z"/>
	<path fill="#ECEFF1" d="M376.058,624.732c-11.656,0-21.105-9.449-21.105-21.105V265.962c0-11.655,9.449-21.105,21.105-21.105   c11.655,0,21.104,9.45,21.104,21.105v337.667C397.163,615.282,387.713,624.732,376.058,624.732z"/>
	<path fill="#ECEFF1" d="M713.726,244.857h-84.418c-11.655,0-21.105-9.45-21.105-21.104c0-11.655,9.45-21.105,21.105-21.105h84.418   c11.654,0,21.104,9.45,21.104,21.105C734.83,235.407,725.38,244.857,713.726,244.857z"/>
	<path fill="#ECEFF1" d="M122.808,666.94H38.39c-11.655,0-21.105-9.449-21.105-21.104c0-11.656,9.45-21.105,21.105-21.105h84.417   c11.655,0,21.104,9.449,21.104,21.105C143.912,657.492,134.463,666.94,122.808,666.94z"/>
</g>
<path d="M798.14,751.357H-46.025c-11.656,0-21.105-9.448-21.105-21.104V139.337c0-11.656,9.449-21.104,21.105-21.104h844.167  c11.654,0,21.103,9.449,21.103,21.104v590.917C819.244,741.908,809.796,751.357,798.14,751.357z M-24.922,709.15h801.957V160.44  H-24.922V709.15z"/>
<path d="M376.058,582.524c-50.186,4.957-95.897-29.09-105.521-78.592c-0.974-11.608,7.641-21.81,19.247-22.792  c11.532-0.742,21.593,7.753,22.792,19.246c1.857,21.992,30.263,39.929,63.312,39.929c34.357,0,63.313-19.332,63.313-42.208  c0-20.598-20.007-33.767-62.891-41.745l-4.474-0.887c-68.462-12.621-101.3-40.646-101.3-83.993  c6.603-52.02,53.321-89.394,105.521-84.417c50.171-4.96,95.878,29.064,105.519,78.548c0.997,11.612-7.606,21.835-19.222,22.833  c-0.008,0-0.017,0.001-0.024,0.001c-11.61,0.882-21.804-7.661-22.961-19.246c-1.773-22.034-30.179-39.929-63.312-39.929  c-34.274,0-63.313,19.332-63.313,42.207c0,20.598,20.049,33.768,63.06,41.786l4.6,0.887c68.377,12.662,101.3,40.646,101.3,83.994  C475.08,550.205,428.29,587.575,376.058,582.524z"/>
<path d="M376.058,624.732c-11.656,0-21.105-9.449-21.105-21.105V265.962c0-11.655,9.449-21.105,21.105-21.105  c11.655,0,21.104,9.45,21.104,21.105v337.667C397.163,615.282,387.713,624.732,376.058,624.732z"/>
<path d="M713.726,244.857h-84.418c-11.655,0-21.105-9.45-21.105-21.104c0-11.655,9.45-21.105,21.105-21.105h84.418  c11.654,0,21.104,9.45,21.104,21.105C734.83,235.407,725.38,244.857,713.726,244.857z"/>
<path d="M122.808,666.94H38.39c-11.655,0-21.105-9.449-21.105-21.104c0-11.656,9.45-21.105,21.105-21.105h84.417  c11.655,0,21.104,9.449,21.104,21.105C143.912,657.492,134.463,666.94,122.808,666.94z"/>
<path d="M924.765,877.982H80.6c-11.656,0-21.104-9.449-21.104-21.104V814.67c0-11.656,9.449-21.105,21.104-21.105  c11.655,0,21.103,9.449,21.103,21.105v21.104H903.66V287.065h-21.103c-11.656,0-21.104-9.45-21.104-21.105  c0-11.656,9.448-21.104,21.104-21.104h42.207c11.655,0,21.105,9.45,21.105,21.105v590.917  C945.87,868.532,936.42,877.982,924.765,877.982z"/>
<g>
	<path fill="#CFD8DC" d="M832.076,669.567L21.262,881.916c-9.735,2.549-15.56,12.509-13.011,22.244l64.628,246.769   c12.748,48.675,62.54,77.8,111.213,65.051l669.804-175.418c48.673-12.748,77.797-62.54,65.048-111.215l-64.627-246.768   C851.771,672.843,841.81,667.018,832.076,669.567z"/>
	<path fill="#CFD8DC" d="M706.175,476.516L36.371,651.936c-48.674,12.748-77.798,62.538-65.05,111.213l9.233,35.254   c2.549,9.734,12.508,15.562,22.244,13.011l810.815-212.349c9.735-2.551,15.561-12.511,13.011-22.244l-9.232-35.253   C804.643,492.893,754.85,463.769,706.175,476.516z"/>
</g>
<g>
	<path fill="#90A4AE" d="M314.193,993.553l-141.01,36.93c-9.735,2.55-19.693-3.274-22.243-13.011   c-2.549-9.733,3.276-19.692,13.011-22.241l141.01-36.931c9.735-2.549,19.694,3.275,22.243,13.009   C329.754,981.043,323.928,991.003,314.193,993.553z"/>
	<path fill="#90A4AE" d="M438.417,1036.362l-246.768,64.628c-9.736,2.549-19.694-3.275-22.244-13.011   c-2.549-9.733,3.275-19.693,13.011-22.243l246.769-64.627c9.733-2.551,19.694,3.275,22.243,13.009   C453.979,1023.853,448.152,1033.813,438.417,1036.362z"/>
</g>
<path fill="#F44336" d="M684.35,896.611c-2.594-9.98-0.777-20.592,4.988-29.143c5.524-8.411,3.188-19.707-5.221-25.233  c-0.531-0.35-1.078-0.669-1.64-0.96c-35.709-18.577-79.719-4.688-98.295,31.02c-18.579,35.71-4.69,79.717,31.019,98.297  c33.232,17.289,74.16,6.569,94.651-24.79c5.525-8.409,3.188-19.707-5.22-25.233c-0.53-0.348-1.077-0.668-1.641-0.958  C693.765,914.972,686.974,906.597,684.35,896.611z"/>
<g>
	<circle fill="#455A64" cx="719.601" cy="887.378" r="72.884"/>
	
		<rect x="-19.865" y="667.607" transform="matrix(-0.9674 0.2534 -0.2534 -0.9674 1008.8588 1351.061)" fill="#455A64" width="874.603" height="145.764"/>
</g>
<path d="M853.896,1040.563l-669.804,175.419c-48.673,12.748-98.465-16.376-111.213-65.053L8.25,904.16  c-2.549-9.735,3.276-19.695,13.011-22.244l810.815-212.35c9.734-2.549,19.694,3.276,22.244,13.01l64.627,246.77  C931.696,978.025,902.571,1027.815,853.896,1040.563z M48.12,912.554l60.012,229.145c7.648,29.206,37.524,46.679,66.729,39.03  l669.803-175.418c29.205-7.649,46.679-37.524,39.03-66.729l-60.012-229.145L48.12,912.554z"/>
<path d="M813.611,599.065L2.797,811.413c-9.735,2.551-19.694-3.276-22.244-13.011l-9.233-35.254  c-12.747-48.672,16.376-98.464,65.05-111.212l669.804-175.419c48.674-12.746,98.464,16.377,111.211,65.051l9.232,35.252  C829.172,586.554,823.346,596.515,813.611,599.065z M11.189,771.544l775.563-203.118l-4.616-17.626  c-7.649-29.206-37.525-46.681-66.729-39.033L45.603,687.188c-29.204,7.647-46.679,37.523-39.031,66.728L11.189,771.544z"/>
<path d="M314.193,993.553l-141.01,36.93c-9.735,2.55-19.693-3.274-22.243-13.011c-2.549-9.733,3.276-19.692,13.011-22.241  l141.01-36.931c9.735-2.549,19.694,3.275,22.243,13.009C329.754,981.043,323.928,991.003,314.193,993.553z"/>
<path d="M438.417,1036.362l-246.768,64.628c-9.736,2.549-19.694-3.275-22.244-13.011c-2.549-9.733,3.275-19.693,13.011-22.243  l246.769-64.627c9.733-2.551,19.694,3.275,22.243,13.009C453.979,1023.853,448.152,1033.813,438.417,1036.362z"/>
<path d="M667.561,976.349c-38.897,10.354-78.823-12.785-89.178-51.684c-10.351-38.897,12.787-78.824,51.686-89.177  c17.577-4.681,36.272-2.617,52.408,5.784c8.938,4.621,12.439,15.614,7.819,24.555c-0.292,0.563-0.613,1.109-0.959,1.638  c-11.096,16.38-6.813,38.652,9.566,49.749c1.31,0.888,2.675,1.683,4.089,2.391c8.938,4.621,12.438,15.612,7.817,24.553  c-0.291,0.563-0.613,1.109-0.958,1.64C700.004,960.851,684.945,971.733,667.561,976.349z M639.863,870.591  c-19.468,5.099-31.118,25.017-26.02,44.484c5.606,19.668,26.093,31.063,45.756,25.456c2.546-0.724,5.003-1.721,7.335-2.97  c-17.434-18.029-24.195-43.848-17.838-68.108C645.981,869.418,642.876,869.801,639.863,870.591z"/>
<path d="M738.066,957.884c-38.939,10.2-78.774-13.101-88.972-52.039c-10.198-38.939,13.101-78.774,52.041-88.974  c38.941-10.198,78.774,13.104,88.972,52.042C800.306,907.853,777.008,947.686,738.066,957.884z M710.369,852.126  c-19.47,5.099-31.118,25.016-26.02,44.484c5.099,19.471,25.015,31.12,44.484,26.02c19.469-5.099,31.118-25.013,26.019-44.484  C749.756,858.677,729.837,847.028,710.369,852.126z"/>
</svg>