<svg xmlns="http://www.w3.org/2000/svg" xmlns:xlink="http://www.w3.org/1999/xlink" version="1.1" id="Capa_1" x="0px" y="0px" viewBox="0 0 496 496" style="enable-background:new 0 0 496 496;" xml:space="preserve" width="496"  height="496" >
<path style="fill:#FEA82F;" d="M200,120H56c-26.512,0-48,21.488-48,48v272c0,26.512,21.488,48,48,48h384c26.512,0,48-21.488,48-48  V168c0-26.512-21.488-48-48-48h-16H200z"/>
<path style="fill:#48C397;" d="M200,152H64c-13.256,0-24,10.744-24,24v256c0,13.256,10.744,24,24,24h368c13.256,0,24-10.744,24-24  V176c0-13.256-10.744-24-24-24h-8H200z"/>
<polygon style="fill:#ECECEC;" points="352,312 456,312 456,376 344,376 344,456 280,456 280,376 40,376 40,312 104,312 104,152   168,152 168,312 272,312 "/>
<polygon style="fill:#B6C1CE;" points="40,344 40,376 280,376 280,456 344,456 344,376 456,376 456,344 "/>
<path style="fill:#FB5968;" d="M200,120v0.448c0,15.528,3.232,30.888,9.488,45.104l68.848,156.48  C284.208,335.384,297.416,344,312,344l0,0c14.584,0,27.792-8.616,33.664-21.968l68.848-156.48  c6.256-14.208,9.488-29.568,9.488-45.104V120C424,58.144,373.856,8,312,8l0,0C250.144,8,200,58.144,200,120z"/>
<circle style="fill:#FEA82F;" cx="312" cy="120" r="80"/>
<path style="fill:#FF8031;" d="M312,176c-40.096,0-73.2-29.528-79-68c-0.592,3.928-1,7.912-1,12c0,44.184,35.816,80,80,80  s80-35.816,80-80c0-4.088-0.408-8.072-1-12C385.2,146.472,352.096,176,312,176z"/>
<path d="M440,112h-8.408C427.448,49.56,375.472,0,312,0S196.552,49.56,192.408,112H56c-30.872,0-56,25.128-56,56v272  c0,30.872,25.128,56,56,56h384c30.872,0,56-25.128,56-56V168C496,137.128,470.872,112,440,112z M208,120  c0-57.344,46.656-104,104-104s104,46.656,104,104.456c0,14.512-2.96,28.608-8.808,41.88l-68.848,156.48  C333.752,329.248,323.408,336,312,336s-21.752-6.752-26.344-17.184l-68.848-156.488c-5.848-13.264-8.808-27.36-8.808-41.872V120z   M271.016,325.248C278.168,341.504,294.248,352,312,352s33.832-10.496,40.984-26.752l68.848-156.472  c1.272-2.88,2.304-5.832,3.336-8.784H432c8.824,0,16,7.176,16,16v128h-72v16h72v48H336v80h-48V368H48v-48h64V160h48v160h88v-16h-72  V160h22.824c1.032,2.944,2.064,5.888,3.336,8.776L271.016,325.248z M448,384v48c0,8.824-7.176,16-16,16h-80v-64H448z M48,384h224v64  H64c-8.824,0-16-7.176-16-16V384z M48,304V176c0-8.824,7.176-16,16-16h32v144H48z M480,440c0,22.056-17.944,40-40,40H56  c-22.056,0-40-17.944-40-40V168c0-22.056,17.944-40,40-40h136.384c0.336,5.392,0.936,10.744,1.984,16H64c-17.648,0-32,14.352-32,32  v256c0,17.648,14.352,32,32,32h368c17.648,0,32-14.352,32-32V176c0-17.648-14.352-32-32-32h-2.384c1.04-5.224,1.64-10.576,1.984-16  h8.4c22.056,0,40,17.944,40,40V440z"/>
<path d="M312,208c48.52,0,88-39.48,88-88s-39.48-88-88-88s-88,39.48-88,88S263.48,208,312,208z M312,48c39.704,0,72,32.296,72,72  s-32.296,72-72,72s-72-32.296-72-72S272.296,48,312,48z"/>
<path d="M320,144h-16c-4.416,0-8-3.584-8-8h-16c0,13.232,10.768,24,24,24v16h16v-16c13.232,0,24-10.768,24-24s-10.768-24-24-24h-16  c-4.416,0-8-3.584-8-8s3.584-8,8-8h16c4.416,0,8,3.584,8,8h16c0-13.232-10.768-24-24-24V64h-16v16c-13.232,0-24,10.768-24,24  s10.768,24,24,24h16c4.416,0,8,3.584,8,8S324.416,144,320,144z"/>
<rect x="304" y="224" width="16" height="16"/>
<rect x="304" y="256" width="16" height="16"/>
<rect x="304" y="288" width="16" height="16"/>
<g>
</g>
<g>
</g>
<g>
</g>
<g>
</g>
<g>
</g>
<g>
</g>
<g>
</g>
<g>
</g>
<g>
</g>
<g>
</g>
<g>
</g>
<g>
</g>
<g>
</g>
<g>
</g>
<g>
</g>
</svg>