<svg xmlns="http://www.w3.org/2000/svg" xmlns:xlink="http://www.w3.org/1999/xlink" version="1.1" id="Capa_1" x="0px" y="0px" width="878.74" height="1303.939" viewBox="0 0 878.74 1303.939" enable-background="new 0 0 878.74 1303.939" xml:space="preserve">
<polyline fill="#5589E9" points="129.242,994.153 129.242,613.911 271.833,613.911 "/>
<circle fill="#EEEBEA" cx="200.537" cy="934.74" r="23.765"/>
<path fill="#FBD2A0" d="M865.959,637.677c0-26.251-21.279-47.53-47.53-47.53H711.485h-35.647H521.365  c0,0,59.413-106.944,47.53-213.887c-11.881-106.943-95.06-71.295-95.06-71.295c0,166.355-202.003,356.477-202.003,356.477V934.74  l106.943,35.647H675.84h35.647h35.647c26.25,0,47.531-21.28,47.531-47.53s-21.281-47.531-47.531-47.531h23.765  c26.251,0,47.53-21.28,47.53-47.53c0-26.251-21.279-47.531-47.53-47.531h23.765c26.251,0,47.53-21.28,47.53-47.53  c0-26.251-21.279-47.53-47.53-47.53h23.765C844.68,685.206,865.959,663.926,865.959,637.677z"/>
<g>
	<path fill="#F9BB70" d="M818.43,649.559h-71.295c-6.563,0-11.883,5.32-11.883,11.883v11.884c0,6.562,5.32,11.883,11.883,11.883   h70.309c26.575,0,48.946-21.747,48.511-48.319c-0.1-6.02-1.326-11.759-3.463-17.035   C855.439,637.268,838.375,649.559,818.43,649.559z"/>
	<path fill="#F9BB70" d="M794.664,744.62h-47.531c-6.562,0-11.883,5.32-11.883,11.883v11.883c0,6.563,5.321,11.884,11.883,11.884   h46.543c26.574,0,48.945-21.747,48.511-48.319c-0.1-6.019-1.325-11.759-3.464-17.034C831.675,732.328,814.61,744.62,794.664,744.62   z"/>
	<path fill="#F9BB70" d="M770.899,839.681h-23.765c-6.563,0-11.883,5.32-11.883,11.883v11.883c0,6.563,5.32,11.883,11.883,11.883   h22.777c26.575,0,48.946-21.747,48.511-48.319c-0.099-6.019-1.325-11.759-3.463-17.034   C807.909,827.39,790.844,839.681,770.899,839.681z"/>
	<path fill="#F9BB70" d="M791.197,905.034c-7.053,17.416-24.118,29.706-44.063,29.706h-368.36l-106.943-35.647v35.647l99.626,33.209   c4.846,1.616,9.922,2.438,15.03,2.438h359.659c26.575,0,48.946-21.746,48.511-48.319   C794.56,916.051,793.333,910.311,791.197,905.034z"/>
	<path fill="#F9BB70" d="M509.483,304.965c0,0,4.446-1.904,11.42-3.51c-23.722-6.492-47.067,3.51-47.067,3.51   c0,166.355-202.003,356.477-202.003,356.477v40.676C336.261,648.904,509.483,488.747,509.483,304.965z"/>
</g>
<path d="M200.537,899.835c-19.246,0-34.905,15.659-34.905,34.905s15.659,34.905,34.905,34.905c19.247,0,34.906-15.659,34.906-34.905  S219.783,899.835,200.537,899.835z M200.537,947.366c-6.961,0-12.625-5.663-12.625-12.626c0-6.961,5.663-12.625,12.625-12.625  c6.963,0,12.626,5.662,12.626,12.625C213.161,941.702,207.499,947.366,200.537,947.366z"/>
<path d="M818.43,579.006H647.618c-6.151,0-11.14,4.989-11.14,11.141c0,6.151,4.988,11.14,11.14,11.14H818.43  c20.065,0,36.392,16.324,36.392,36.391c0,20.064-16.326,36.391-36.392,36.391h-83.178c-6.152,0-11.141,4.988-11.141,11.141  c0,6.151,4.988,11.14,11.141,11.14h59.412c20.064,0,36.391,16.326,36.391,36.391s-16.326,36.391-36.391,36.391h-59.412  c-6.152,0-11.141,4.988-11.141,11.141s4.988,11.141,11.141,11.141h35.647c20.065,0,36.391,16.326,36.391,36.39  c0,20.065-16.325,36.391-36.391,36.391h-35.647c-6.152,0-11.141,4.989-11.141,11.141c0,6.152,4.988,11.141,11.141,11.141h11.883  c20.064,0,36.391,16.326,36.391,36.39c0,20.065-16.326,36.391-36.391,36.391H386.489c-3.918,0-7.791-0.628-11.509-1.866  l-92.007-30.67v-260.53c12.419-12.085,55.327-55.133,98.819-113.978c65.898-89.154,100.529-169.557,103.037-239.149  c9.643-2.608,28.064-5.599,43.565,3.509c16.087,9.449,25.989,29.946,29.431,60.923c11.336,102.025-45.623,206.212-46.196,207.247  c-4.006,7.284,1.382,16.549,9.738,16.549h72.78c6.152,0,11.141-4.988,11.141-11.14c0-6.152-4.988-11.141-11.141-11.141h-54.709  c16.353-34.721,50.018-118.612,40.531-203.976c-4.271-38.453-17.893-64.624-40.48-77.787c-31.806-18.533-68.492-3.18-70.038-2.517  c-4.097,1.755-6.755,5.785-6.755,10.239c0,82.802-53.62,172.792-98.601,233.703c-30.859,41.789-62.002,75.975-81.122,95.836  l-25.817,7.271c0-6.152,0,0-6.152,0L129.242,602.77c-6.152,0-11.141,4.988-11.141,11.141V918.33c0,6.152,4.988,11.141,11.141,11.141  h142.591c6.152,0,11.141-4.988,11.141-11.141v31.865l84.963,28.32c5.995,1.999,12.236,3.012,18.553,3.012h360.646  c32.351,0,58.67-26.32,58.67-58.67c0-15.297-5.892-29.242-15.517-39.696c22.85-8.027,39.283-29.806,39.283-55.363  c0-15.298-5.892-29.243-15.518-39.696c22.851-8.028,39.283-29.806,39.283-55.364c0-15.297-5.892-29.242-15.517-39.697  c22.847-8.026,39.279-29.806,39.279-55.363C877.1,605.326,850.779,579.006,818.43,579.006z M224.302,892.256l-83.921,90.759V625.051  h120.312L224.302,892.256z"/>
<rect x="12.777" y="596.963" fill="#546F7A" width="187.196" height="384.181"/>
<rect x="12.777" y="949.561" fill="#465A65" width="187.196" height="31.577"/>
<rect x="199.979" y="620.113" fill="#EFE7E4" width="86.523" height="337.868"/>
<rect x="199.979" y="924.748" fill="#D8D1D0" width="86.523" height="33.238"/>
<circle cx="140.851" cy="923.902" r="17.731"/>
<path d="M298.25,930.499h-0.617v-31.935c0-6.151-4.986-11.136-11.136-11.136c-6.152,0-11.137,4.984-11.137,11.136v48.292h-64.25  V631.252h64.25v230.193c0,6.151,4.986,11.136,11.137,11.136c6.151,0,11.136-4.985,11.136-11.136V651.292h0.617v-22.275h-0.619  v-8.902c0-6.151-4.985-11.136-11.136-11.136H211.11v-12.015c0-6.152-4.985-11.137-11.136-11.137H12.777  c-6.152,0-11.136,4.986-11.136,11.137v66.08c0,6.152,4.985,11.136,11.136,11.136c6.151,0,11.136-4.983,11.136-11.136V608.1H188.84  v361.904H23.915V700.165c0-6.151-4.985-11.136-11.136-11.136c-6.151,0-11.136,4.986-11.136,11.136v280.979  c0,6.152,4.985,11.136,11.136,11.136h187.199c6.152,0,11.136-4.985,11.136-11.136v-12.015h75.385  c6.153,0,11.137-4.984,11.137-11.137v-5.22h0.615V930.499z"/>
</svg>