<svg xmlns="http://www.w3.org/2000/svg" xmlns:xlink="http://www.w3.org/1999/xlink" version="1.1" id="Capa_1" x="0px" y="0px" width="878.74" height="1303.939" viewBox="0 0 878.74 1303.939" enable-background="new 0 0 878.74 1303.939" xml:space="preserve">
<path fill="#E8C842" d="M360.185,305.813l82.792,75.259l-0.153,1.282c54.96,36.708,120.349,130.201,132.808,156.208l0.433,0.902  c-7.819-109.423-39.229-206.502-71.267-268.126c-92.46-79.529-48.24-41.496-60.703-52.215  c-26.229-22.489-65.673-19.685-88.458,6.289l0,0C334.979,248.97,337.002,284.739,360.185,305.813z"/>
<path fill="#DBBC3B" d="M477.184,334.562l-82.716-75.902c-14.081-12.8-20.341-31.019-18.468-48.628  c-7.548,3.577-14.504,8.709-20.358,15.384l0,0c-20.662,23.554-18.639,59.323,4.546,80.397l82.792,75.259l-0.152,1.282  c54.96,36.708,120.349,130.201,132.807,156.208l0.433,0.902c-3.203-44.812-10.364-87.549-19.903-126.632  C532.068,382.761,503.45,352.107,477.184,334.562z"/>
<path fill="#F4D44E" d="M759.271,564.085c0,0-31.984-266.092-180.006-425.266c-23.929-25.733-63.355-29.424-91.57-8.472l0,0  c-27.355,20.312-34.327,58.33-15.916,87.002c35.837,55.809,87.599,157.289,100.704,292.48c0.599,14.011-6.418,2.821-6.418,2.821  l-0.015,0.014c-59.9-92.855-127.945-140.481-170.51-158.151c-9.48-3.935-19.879-5.033-30.015-3.387  c-36.009,5.843-135.323,22.963-185.594,73.232c-63.311,63.31-3.455,119.757,41.471,119.757c29.696,0,80.526-20.125,111.581-33.775  c15.979-7.022,34.669-2.516,45.729,10.985l57.987,70.785c7.968,9.729,12.525,21.8,12.97,34.371l4.469,126.242  c0.364,10.305-3.926,20.229-11.688,27.02l-45.15,39.509c-17.714,18.503-46.252,21.388-67.31,6.802  c-9.148-8.008-34.807-16.97-40.666-47.555c-12.634-65.958-30.898-122.091-32.737-126.328  c-20.872-48.081-61.434-79.068-112.115-60.285c-75.56,28-14.803,73.46-6.472,261.796c1.215,27.465,11.981,52.369,29.037,71.493  c37.106,41.602,65.017,81.887,123.737,160.084c5.923,7.942,10.95,16.518,14.995,25.562l0,0c6.679,14.939,5.759,27.752,5.854,28.704  c0,26.318,21.334,47.658,47.658,47.658h276.112c24.502,0,44.366-19.861,44.366-44.365c2.561-104.357-7.071-128.861,11.879-164.505  c10.893-20.504,19.409-42.165,26.413-64.301c7.008-22.149,16.198-45.717,25.308-71.629  C795.381,694.412,759.952,572.408,759.271,564.085z"/>
<g>
	<path fill="#E8C842" d="M376.693,1139.603c-0.1-0.991,0.861-14.372-6.113-29.975l0,0c-4.225-9.445-9.475-18.397-15.658-26.693   c-61.32-81.66-90.473-123.731-129.219-167.178c-17.811-19.972-29.059-45.979-30.327-74.661   c-7.112-160.757-50.78-221.825-23.414-254.739c-8.759,0.226-17.943,1.994-27.484,5.531c-75.56,27.999-14.804,73.458-6.473,261.797   c1.215,27.466,11.982,52.37,29.038,71.493c37.105,41.603,65.016,81.888,123.737,160.084c5.924,7.943,10.95,16.519,14.995,25.562   l0,0c6.679,14.938,5.76,27.751,5.854,28.704c0,26.319,21.335,47.659,47.659,47.659h52.553   C391.488,1180.938,376.693,1162.001,376.693,1139.603z"/>
	<path fill="#E8C842" d="M520.852,603.83c-0.466-13.123-5.223-25.733-13.545-35.892l-60.556-73.921   c-11.552-14.098-31.071-18.804-47.757-11.473c-32.431,14.252-85.514,35.271-116.524,35.271   c-55.115,0-114.909-72.047-27.859-138.482c-27.909,10.825-55.038,25.385-74.678,45.025c-63.31,63.31-3.455,119.757,41.471,119.757   c29.697,0,80.526-20.125,111.582-33.775c15.979-7.022,34.669-2.516,45.729,10.985l57.986,70.785   c7.969,9.729,12.527,21.8,12.97,34.371c4.286,131.152,6.335,130.77,1.336,141.745c-4.247,9.248-7.042,10.093-49.527,47.37l0,0   c-4.479,3.261-15.184,17.97-38.24,19.559l-0.001,0.037c0,0,46.162,9.259,89.996-20.13c5.747-3.183-0.326,1.799,60.08-51.182   c8.104-7.094,12.587-17.455,12.205-28.22L520.852,603.83z"/>
	<path fill="#E8C842" d="M645.02,448.665c-18.216-124.549-66.67-218.501-101.086-272.096c-11.723-18.257-13.573-40.143-6.767-59.253   c-17.015-2.103-34.769,2.108-49.475,13.028l0,0c-27.355,20.313-34.327,58.331-15.917,87.002   c53.11,82.71,90.248,184.616,100.704,292.479c0.164,3.843-0.247,5.783-0.925,6.585C654.283,516.413,645.02,448.665,645.02,448.665z   "/>
</g>
<path d="M313.284,377.992c24.12-5.942,45.641-9.434,54.831-10.924c7.315-1.188,14.655-0.369,21.233,2.363  c65.797,27.313,140.967,107.209,169.905,163.899c12.087,22.929,29.485,59.881,29.485,85.895c0,8.92,7.23,16.153,16.153,16.153  s16.153-7.233,16.153-16.153c0-35.84-24.489-84.515-31.312-97.379c-10.827-141.257-62.615-248.208-104.368-313.23  c-13.759-21.424-8.508-50.109,11.953-65.303c21.608-16.041,51.747-13.239,70.112,6.507c49.369,53.089,117.064,153.38,159.22,329.685  c2.07,8.675,10.791,14.032,19.466,11.954c8.675-2.075,14.029-10.791,11.953-19.468c-43.784-183.135-114.972-288.244-166.981-344.174  c-29.597-31.82-78.189-36.315-113.03-10.441c-26.688,19.815-37.819,53.429-30.36,84.209  c-32.559-22.209-77.661-17.088-104.213,13.176c-26.29,29.977-23.677,76.182,5.826,103.003l18.473,16.793  c-6.514,0.616-36.323,5.68-62.241,12.064c-8.661,2.133-13.955,10.885-11.82,19.546C295.868,374.833,304.615,380.131,313.284,377.992  z M367.788,236.067c16.862-19.225,46.382-21.325,65.798-4.678l54.573,46.795c24.726,48.154,48.663,109.826,61.551,183.532  c-27.63-35.36-60.499-68.156-96.732-93.39l-81.922-74.469C354.501,278.811,353.035,252.885,367.788,236.067z"/>
<path d="M754.682,533.712c-8.813,1.387-14.835,9.653-13.447,18.466c6.662,42.325,34.911,148.254-13.108,284.847  c-38.937,110.744-34.586,101.499-52.337,136.786c-19.496,38.981-9.442,69.487-12.181,169.009c0,15.556-12.655,28.211-28.209,28.211  H458.844c-8.923,0-16.153,7.23-16.153,16.153s7.23,16.153,16.153,16.153h176.556c33.37,0,60.519-27.146,60.519-60.519  c2.263-106.66-6.104-126.686,9.989-156.924c14.468-27.228,15.631-32.71,52.698-138.154c32.221-91.649,37.958-190.67,16.6-286.433  c-0.236-1.86-0.887-6.734-2.052-14.15C771.764,538.349,763.513,532.316,754.682,533.712z"/>
<path d="M121.866,854.398c1.332,30.123,13.096,59.079,33.124,81.532c35.251,39.521,60.95,76.393,122.843,158.99  c20.511,27.509,17.332,43.407,17.642,44.607c0,35.187,28.625,63.813,63.812,63.813h24.17c8.923,0,16.153-7.23,16.153-16.153  c0-8.924-7.23-16.153-16.153-16.153h-24.17c-17.37,0-31.505-14.134-31.505-31.506c-0.455-2.056,3.532-26.931-24.051-63.919  c-59.169-78.951-87.72-119.797-124.631-161.185c-15.09-16.916-23.951-38.743-24.954-61.451  c-3.254-73.553-20.369-154.238-22.326-163.277c-13.47-62.3-13.953-70.717,18.272-82.661c55.366-20.523,84.177,34.285,91.607,51.388  c1.609,4.047,19.264,57.855,31.769,123.117c7.381,38.519,38.747,50.104,47.333,57.795c27.543,19.069,64.277,15.524,87.649-8.365  l44.65-39.069c11.467-10.035,17.731-24.525,17.19-39.751l-4.471-126.24c-0.564-16.005-6.465-31.644-16.616-44.038l-57.987-70.785  c-15.599-19.04-42.221-25.426-64.729-15.537c-46.865,20.597-85.165,32.411-105.081,32.411c-30.349,0-83.063-39.164-30.047-92.183  c12.895-12.896,30.816-24.593,53.259-34.769c8.126-3.683,11.728-13.254,8.044-21.38c-3.685-8.126-13.26-11.729-21.38-8.044  c-25.994,11.781-47.114,25.693-62.77,41.351c-72.279,72.276-8.566,147.333,52.895,147.333c31.51,0,81.605-19.108,118.08-35.139  c9.29-4.081,20.287-1.437,26.734,6.434l57.984,70.784c5.697,6.952,9.007,15.726,9.324,24.706l4.472,126.244  c0.194,5.474-2.059,10.681-6.184,14.289c-47.914,41.958-45.225,39.502-46.18,40.495c-12.294,12.846-31.831,14.813-46.444,4.696  c-10.89-9.206-29.664-14.691-33.998-37.315c-12.889-67.267-31.413-124.252-33.787-129.72c-26.833-61.814-78.863-88.896-132.548-69  c-19.059,7.061-41.607,18.761-46.822,46.768c-3.513,18.86,1.398,41.578,8.215,73.109  C102.142,705.301,118.733,783.506,121.866,854.398z"/>
</svg>