<svg xmlns="http://www.w3.org/2000/svg" xmlns:xlink="http://www.w3.org/1999/xlink" version="1.1" id="Capa_1" x="0px" y="0px" width="878.74" height="1303.939" viewBox="0 0 878.74 1303.939" enable-background="new 0 0 878.74 1303.939" xml:space="preserve">
<g>
	<path fill="#FFFFFF" d="M751.716,920.065c64.154-74.632,99.485-169.843,99.485-268.095c0-227.084-184.747-411.831-411.831-411.831   S27.539,424.886,27.539,651.97s184.747,411.831,411.831,411.831c98.252,0,193.464-35.331,268.096-99.485   c6.726-5.78,16.818-5.086,22.704,1.498c7.968-7.39,15.656-15.076,23.046-23.044C746.63,936.883,745.933,926.791,751.716,920.065z    M423.114,288.908c0-8.978,7.278-16.257,16.256-16.257c8.978,0,16.257,7.279,16.257,16.257v65.026   c0,8.978-7.279,16.256-16.257,16.256c-8.978,0-16.256-7.278-16.256-16.256V288.908z M141.334,668.227H76.309   c-8.978,0-16.256-7.279-16.256-16.257c0-8.978,7.278-16.256,16.256-16.256h65.026c8.978,0,16.257,7.278,16.257,16.256   C157.591,660.948,150.313,668.227,141.334,668.227z M455.627,1015.031c0,8.978-7.279,16.257-16.257,16.257   c-8.978,0-16.256-7.279-16.256-16.257v-65.026c0-8.978,7.278-16.256,16.256-16.256c8.978,0,16.257,7.278,16.257,16.256V1015.031z    M707.59,452.721L498.075,662.236c-4.883,27.99-29.34,49.341-58.705,49.341c-10.538,0-20.44-2.759-29.039-7.577l-170.11,170.109   c-3.174,3.174-7.335,4.763-11.494,4.763c-4.16,0-8.321-1.587-11.495-4.763c-6.348-6.348-6.348-16.642,0-22.988l170.11-170.109   c-3.216-5.742-5.504-12.065-6.675-18.773L240.122,521.693c-6.348-6.349-6.348-16.643,0-22.989l45.98-45.98   c6.348-6.348,16.642-6.348,22.988,0l140.545,140.545c0.689,0.12,1.376,0.241,2.057,0.386l22.152-22.149   c-6.342-6.349-6.342-16.638,0.006-22.985l164.768-164.767c3.048-3.048,7.184-4.762,11.494-4.762c4.312,0,8.447,1.712,11.495,4.762   l45.979,45.979C713.938,436.078,713.938,446.373,707.59,452.721z M737.405,668.227c-8.978,0-16.256-7.279-16.256-16.257   c0-8.978,7.278-16.256,16.256-16.256h65.026c8.978,0,16.257,7.278,16.257,16.256c0,8.978-7.279,16.257-16.257,16.257H737.405z"/>
	<path fill="#6DA8D6" d="M387.341,622.931c5.39-9.622,13.368-17.6,22.99-22.992L297.598,487.206l-22.991,22.992L387.341,622.931z"/>
	<path fill="#98D9D5" d="M491.399,622.931l181.705-181.704l-22.992-22.992l-153.27,153.272c-6.35,6.349-16.643,6.349-22.989,0   c-0.006-0.005-22.156,22.144-22.156,22.144C468.745,597.25,483.122,608.159,491.399,622.931z"/>
	<path fill="#FF6E1D" d="M439.37,175.113c-262.941,0-476.857,213.918-476.857,476.857c0,262.941,213.916,476.857,476.857,476.857   S916.228,914.911,916.228,651.97C916.228,389.031,702.312,175.113,439.37,175.113z M776.372,941.26   c-5.854,6.808-16.114,7.584-22.926,1.729c-0.083-0.07-0.152-0.15-0.232-0.222c-7.39,7.968-15.076,15.656-23.046,23.044   c0.072,0.079,0.15,0.149,0.222,0.231c5.853,6.808,5.079,17.071-1.729,22.927c-80.529,69.224-183.266,107.344-289.29,107.344   c-245.014,0-444.344-199.33-444.344-444.344c0-245.011,199.331-444.344,444.344-444.344S883.714,406.959,883.714,651.97   C883.714,757.994,845.594,860.731,776.372,941.26z"/>
	<path fill="#082947" d="M799.549,291.791C703.343,195.583,575.429,142.6,439.37,142.6c-136.058,0-263.973,52.983-360.179,149.191   C-17.017,387.998-70,515.912-70,651.97c0,136.058,52.983,263.973,149.191,360.178c96.206,96.209,224.121,149.192,360.179,149.192   c136.059,0,263.973-52.983,360.179-149.192c96.208-96.205,149.191-224.12,149.191-360.178   C948.74,515.912,895.757,387.998,799.549,291.791z M439.37,1128.827c-262.941,0-476.857-213.916-476.857-476.857   c0-262.939,213.916-476.857,476.857-476.857S916.228,389.031,916.228,651.97C916.228,914.911,702.312,1128.827,439.37,1128.827z"/>
	<path fill="#FFCC75" d="M466.465,651.97c0-14.941-12.153-27.095-27.095-27.095c-14.941,0-27.095,12.154-27.095,27.095   c0,14.941,12.154,27.094,27.095,27.094C454.312,679.064,466.465,666.911,466.465,651.97z"/>
	<path fill="#082947" d="M439.37,370.191c8.978,0,16.257-7.278,16.257-16.256v-65.026c0-8.978-7.279-16.257-16.257-16.257   c-8.978,0-16.256,7.279-16.256,16.257v65.026C423.114,362.912,430.392,370.191,439.37,370.191z"/>
	<path fill="#082947" d="M818.688,651.97c0-8.978-7.279-16.256-16.257-16.256h-65.026c-8.978,0-16.256,7.278-16.256,16.256   c0,8.978,7.278,16.257,16.256,16.257h65.026C811.409,668.227,818.688,660.948,818.688,651.97z"/>
	<path fill="#082947" d="M439.37,933.749c-8.978,0-16.256,7.278-16.256,16.256v65.026c0,8.978,7.278,16.257,16.256,16.257   c8.978,0,16.257-7.279,16.257-16.257v-65.026C455.627,941.028,448.348,933.749,439.37,933.749z"/>
	<path fill="#082947" d="M141.334,635.714H76.309c-8.978,0-16.256,7.278-16.256,16.256c0,8.978,7.278,16.257,16.256,16.257h65.026   c8.978,0,16.257-7.279,16.257-16.257C157.591,642.992,150.313,635.714,141.334,635.714z"/>
	<path fill="#082947" d="M661.607,383.751c-3.048-3.048-7.184-4.762-11.495-4.762c-4.311,0-8.446,1.711-11.494,4.762   L473.851,548.518c-6.346,6.347-6.348,16.636-0.006,22.985c6.353,6.354,16.646,6.354,22.995,0.005L650.11,418.236l22.991,22.992   L491.397,622.931c-8.277-14.772-22.655-25.682-39.705-29.282c-0.681-0.143-1.37-0.264-2.057-0.385L309.09,452.719   c-6.349-6.348-16.643-6.348-22.989,0l-45.979,45.979c-6.348,6.349-6.348,16.643,0,22.99l140.545,140.544   c1.171,6.707,3.459,13.031,6.675,18.773l-170.11,170.109c-6.348,6.35-6.348,16.643,0,22.989c3.174,3.174,7.335,4.763,11.495,4.763   c4.159,0,8.32-1.588,11.494-4.763l170.11-170.11c8.599,4.818,18.5,7.579,29.039,7.579c29.365,0,53.822-21.352,58.703-49.341   l209.514-209.514c6.349-6.348,6.349-16.642,0-22.988L661.607,383.751z M410.332,599.94c-9.622,5.392-17.6,13.37-22.99,22.992   L274.607,510.198l22.991-22.992L410.332,599.94z M412.275,651.97c0-14.941,12.154-27.095,27.095-27.095   c14.941,0,27.095,12.154,27.095,27.095c0,14.941-12.153,27.094-27.095,27.094C424.429,679.064,412.275,666.911,412.275,651.97z"/>
	<path fill="#082947" d="M439.37,207.626c-245.014,0-444.344,199.333-444.344,444.344c0,245.014,199.331,444.344,444.344,444.344   c106.024,0,208.761-38.12,289.29-107.343c6.809-5.853,7.584-16.117,1.729-22.927c-0.07-0.081-0.149-0.151-0.222-0.23   c-5.886-6.584-15.977-7.278-22.704-1.498c-74.63,64.154-169.842,99.485-268.094,99.485c-227.084,0-411.831-184.747-411.831-411.831   S212.286,240.139,439.37,240.139S851.201,424.886,851.201,651.97c0,98.252-35.331,193.463-99.485,268.095   c-5.783,6.727-5.086,16.818,1.498,22.705c0.08,0.071,0.149,0.149,0.232,0.221c6.812,5.854,17.072,5.077,22.926-1.729   c69.222-80.531,107.342-183.268,107.342-289.292C883.714,406.959,684.384,207.626,439.37,207.626z"/>
</g>
</svg>